<?xml version="1.0" encoding="UTF-8" standalone="no"?> <svg id="Flat" xmlns="http://www.w3.org/2000/svg" viewBox="0 0 64 64"><path d="M56,41V3h0a23.425,23.425,0,0,0-8,17.63V41h8" style="fill:#d0d3d6"/><path d="M11,61h0a2.907,2.907,0,0,1-2.906-3L9,28h4l.906,30A2.907,2.907,0,0,1,11,61Z" style="fill:#d0d3d6"/><path d="M40,16c0-7.18-3.582-13-8-13s-8,5.82-8,13c0,6.045,2.543,11.111,5.982,12.566L29.094,58a2.907,2.907,0,1,0,5.812,0l-.888-29.436C37.457,27.111,40,22.045,40,16Z" style="fill:#d0d3d6"/><path d="M32,26.077a1,1,0,0,1-.39-1.921l.459-.2C33.06,23.542,35,20.692,35,16a1,1,0,0,1,2,0c0,5.038-2.111,8.94-4.151,9.8l-.459.2A1.014,1.014,0,0,1,32,26.077Z" style="fill:#e5e5e5"/><path d="M56,41V58.075A2.926,2.926,0,0,1,53.075,61h0a2.924,2.924,0,0,1-2.921-3.071L51,41h5Z" style="fill:#630"/><path d="M52.293,28.707a1,1,0,0,0,1.414,0L56,26.414V23.586l-3.707,3.707A1,1,0,0,0,52.293,28.707Z" style="fill:#e5e5e5"/><path d="M51.293,33.293a1,1,0,1,0,1.414,1.414L56,31.414V28.586Z" style="fill:#e5e5e5"/><path d="M6,18a1.035,1.035,0,0,1-1-1.067V3.067A1.035,1.035,0,0,1,6,2,1.035,1.035,0,0,1,7,3.067V16.933A1.035,1.035,0,0,1,6,18Z" style="fill:#d0d3d6"/><path d="M11,18a1.035,1.035,0,0,1-1-1.067V3.067a1,1,0,1,1,2,0V16.933A1.035,1.035,0,0,1,11,18Z" style="fill:#d0d3d6"/><path d="M16,18a1.035,1.035,0,0,1-1-1.067V3.067a1,1,0,1,1,2,0V16.933A1.035,1.035,0,0,1,16,18Z" style="fill:#d0d3d6"/><path d="M17,16v4a12.069,12.069,0,0,1-3.536,8.535L13,29H9l-.465-.465A12.072,12.072,0,0,1,5,20V16H17" style="fill:#d0d3d6"/></svg>